<svg xmlns="http://www.w3.org/2000/svg" viewBox="0 0 512 512" role="img" aria-label="Jadipa icon">
  <defs>
    <linearGradient id="bg" x1="64" y1="448" x2="448" y2="64" gradientUnits="userSpaceOnUse">
      <stop offset="0" stop-color="#1f2937"/>
      <stop offset="0.52" stop-color="#2563eb"/>
      <stop offset="1" stop-color="#14b8a6"/>
    </linearGradient>
    <linearGradient id="patch" x1="156" y1="344" x2="356" y2="144" gradientUnits="userSpaceOnUse">
      <stop offset="0" stop-color="#f8fafc"/>
      <stop offset="1" stop-color="#dbeafe"/>
    </linearGradient>
    <filter id="shadow" x="-20%" y="-20%" width="140%" height="140%">
      <feDropShadow dx="0" dy="12" stdDeviation="14" flood-color="#0f172a" flood-opacity="0.22"/>
    </filter>
  </defs>
  <rect width="512" height="512" rx="104" fill="url(#bg)"/>
  <g filter="url(#shadow)">
    <path d="M154 160c0-19.882 16.118-36 36-36h132l72 72v156c0 19.882-16.118 36-36 36H190c-19.882 0-36-16.118-36-36V160Z" fill="url(#patch)"/>
    <path d="M322 124v54c0 9.941 8.059 18 18 18h54l-72-72Z" fill="#bfdbfe"/>
    <path d="M211 220h98" stroke="#1e40af" stroke-width="22" stroke-linecap="round"/>
    <path d="M211 292h74" stroke="#0f766e" stroke-width="22" stroke-linecap="round"/>
    <path d="M330 270h42m-21-21v42" stroke="#0f766e" stroke-width="22" stroke-linecap="round"/>
    <path d="M203 352h-46c-20.435 0-37-16.565-37-37v-34m0 0 28 28m-28-28-28 28" fill="none" stroke="#f8fafc" stroke-width="24" stroke-linecap="round" stroke-linejoin="round"/>
    <path d="M309 160h46c20.435 0 37 16.565 37 37v34m0 0-28-28m28 28 28-28" fill="none" stroke="#f8fafc" stroke-width="24" stroke-linecap="round" stroke-linejoin="round"/>
  </g>
</svg>
